<?xml version="1.0" standalone="no"?>
<!DOCTYPE svg PUBLIC "-//W3C//DTD SVG 20010904//EN"
 "http://www.w3.org/TR/2001/REC-SVG-20010904/DTD/svg10.dtd">
<svg version="1.0" xmlns="http://www.w3.org/2000/svg"
 width="239" height="99" viewBox="0 0 631.000000 628.000000"
 preserveAspectRatio="xMidYMid meet">

<g transform="translate(0.000000,628.000000) scale(0.100000,-0.100000)"
fill="#000000" stroke="none">
<path d="M2901 6110 c-616 -52 -1172 -271 -1652 -651 -133 -105 -362 -335
-468 -468 -562 -709 -775 -1605 -592 -2493 112 -544 384 -1054 776 -1457 168
-173 296 -281 470 -400 385 -261 792 -420 1263 -493 197 -30 630 -33 817 -5
575 86 1044 286 1478 629 131 104 371 344 475 476 332 419 540 899 624 1437
19 119 22 183 23 425 0 298 -6 369 -51 595 -51 264 -125 479 -254 740 -153
311 -328 555 -575 800 -478 475 -1076 766 -1749 850 -150 19 -449 26 -585 15z
m353 -1226 c12 -5 16 -21 16 -71 l0 -64 -32 3 c-32 3 -33 4 -36 56 -4 68 12
91 52 76z m317 -193 c481 -105 874 -403 1083 -819 58 -116 125 -331 104 -331
-4 0 -29 9 -55 20 -184 79 -447 87 -647 22 -84 -28 -210 -105 -245 -149 l-20
-26 -48 49 c-57 59 -163 114 -278 144 -65 18 -108 22 -230 22 -122 0 -165 -4
-230 -22 -112 -30 -216 -83 -273 -140 l-48 -48 -54 50 c-64 58 -162 108 -275
138 -65 18 -108 22 -230 22 -163 0 -250 -16 -363 -68 l-55 -25 7 37 c9 60 54
191 97 282 134 287 409 562 710 708 122 60 229 98 360 127 156 34 157 34 389
31 163 -2 225 -7 301 -24z m-291 -1531 c4 -352 8 -439 19 -456 37 -55 129 -74
179 -37 29 21 58 71 67 116 5 24 10 28 33 25 22 -2 28 -9 30 -33 13 -108 -116
-221 -227 -200 -85 16 -149 72 -170 150 -12 45 -16 857 -4 869 4 4 21 6 38 4
l30 -3 5 -435z m-1213 215 c59 -51 109 -131 162 -263 l47 -117 45 -3 c41 -3
46 -1 45 18 -1 17 10 26 47 40 51 20 56 17 66 -34 5 -22 13 -32 29 -34 20 -3
22 0 17 21 -6 21 -1 26 40 41 56 22 71 17 79 -27 l6 -35 208 -7 207 -7 32 -35
c32 -34 41 -53 25 -53 -7 0 -650 -137 -729 -155 -20 -5 -21 -6 -6 -52 8 -27
37 -129 64 -227 27 -99 51 -181 52 -183 2 -2 50 -16 106 -32 95 -27 155 -60
138 -77 -3 -4 -50 -11 -104 -16 -112 -10 -127 -14 -118 -28 10 -17 -4 -60 -19
-60 -8 0 -23 11 -33 25 l-18 25 -90 -70 c-73 -56 -91 -66 -98 -54 -13 24 -2
52 59 149 49 78 54 92 44 109 -7 11 -55 101 -108 201 -52 99 -98 184 -102 189
-5 4 -155 -81 -335 -189 -350 -212 -345 -210 -345 -133 0 35 10 47 150 184
l149 147 -19 27 c-29 41 -25 55 23 74 54 20 63 20 71 -1 6 -15 8 -15 23 -1 14
15 14 19 -7 53 -12 20 -21 38 -19 40 2 2 28 13 57 24 l53 21 7 -20 c7 -19 10
-18 40 13 l33 34 -41 103 c-51 127 -70 206 -70 291 0 118 57 153 137 84z
m2547 -1342 c-51 -89 -107 -158 -208 -258 -280 -278 -674 -438 -1040 -422
-271 11 -498 115 -689 317 -82 86 -195 257 -180 271 5 4 38 21 76 38 l68 30
23 -53 c99 -225 304 -405 543 -480 376 -117 880 33 1230 367 52 50 118 124
146 164 28 40 53 73 55 73 2 0 -9 -21 -24 -47z"/>
</g>
</svg>
